<svg xmlns="http://www.w3.org/2000/svg" xmlns:xlink="http://www.w3.org/1999/xlink" viewBox="0 0 125.36 171.69"><defs><style>.cls-1{fill:#1bdb6f;}.cls-2{fill:#8612f4;}.cls-3{fill:#f52000;}.cls-4{fill:#9d003e;}.cls-5{fill:#2fc9c5;}.cls-6{fill:url(#铃琨眄_沭噤桢眚_8);}.cls-7{fill:url(#铃琨眄_沭噤桢眚_28);}.cls-8{fill:#efc514;}.cls-9{fill:#e3dc45;}</style><linearGradient id="铃琨眄_沭噤桢眚_8" x1="90.02" y1="69.96" x2="-25.3" y2="148.63" gradientUnits="userSpaceOnUse"><stop offset="0" stop-color="#f52000"/><stop offset="1" stop-color="#c82007"/></linearGradient><linearGradient id="铃琨眄_沭噤桢眚_28" x1="64.37" y1="-0.63" x2="-6.24" y2="62.17" gradientUnits="userSpaceOnUse"><stop offset="0" stop-color="#00a0f5"/><stop offset="0.25" stop-color="#0399f5"/><stop offset="0.61" stop-color="#0c87f5"/><stop offset="1" stop-color="#196af4"/></linearGradient></defs><g id="图层_2" data-name="图层 2"><g id="央铋_1" data-name="央铋 1"><path class="cls-1" d="M114.54,145c-3.38-2.37-8.09-3.58-14-3.58H44.1c-3.54,0-44,11.25-44,11.25,0,.51-.09,1-.09,1.49a16.83,16.83,0,0,0,5.29,12.32c3.5,3.46,8.39,5.22,14.53,5.22H76.58Z"/><path class="cls-2" d="M116,146.2c-.29-.27-.59-.53-.91-.78-3.41-2.66-8.33-4-14.61-4h-21L37.86,171.69H81Z"/><path class="cls-3" d="M106.46,145a1.8,1.8,0,0,1,.35-2.62l-17.76,13a1.8,1.8,0,0,0-.35,2.62,2,2,0,0,0,2.76.33l17.76-13A2,2,0,0,1,106.46,145Z"/><path class="cls-4" d="M117.12,137.23a2,2,0,0,0-2.77-.33l-7.54,5.52h0a1.8,1.8,0,0,0-.35,2.62,2,2,0,0,0,2.76.33l7.54-5.52A1.81,1.81,0,0,0,117.12,137.23Z"/><path class="cls-3" d="M42.57,166.64a3.85,3.85,0,0,0,5.21.63l11.66-8.54a3.4,3.4,0,0,0,.67-4.93,3.85,3.85,0,0,0-5.21-.63l-11.66,8.54A3.4,3.4,0,0,0,42.57,166.64Z"/><path class="cls-5" d="M116.27,167.29a14.91,14.91,0,0,0,4.17-10.63,13.54,13.54,0,0,0-4.79-10.8L79.88,171.69h23.94C109.29,171.69,113.48,170.21,116.27,167.29Z"/><path class="cls-6" d="M106.89,19,80.13,38.57A23.44,23.44,0,0,1,83,50.06a31.17,31.17,0,0,1-3.1,13A51.45,51.45,0,0,1,70.7,76.37a99.76,99.76,0,0,1-15.29,13c-3.6,2.43-9.38,7.31-17.67,14.94-8.13,7.49-17.37,16.59-27.47,27.08a40.59,40.59,0,0,0-7,11.12C1.06,147.35,0,151.14,0,154.15a16.83,16.83,0,0,0,5.29,12.32l.41.38S42.75,141.7,42.84,141.6c3.57-3.27,17-17.2,28.31-26.44S90.84,98.86,95.69,94.5,105.58,83.81,110.33,76a50.63,50.63,0,0,0,7.26-26.6A48.8,48.8,0,0,0,106.89,19Z"/><path class="cls-4" d="M89.77,5.62c-1.27-.56-2.59-1.08-4-1.56l-31,22.69a29.36,29.36,0,0,1,3.8-.24,25.79,25.79,0,0,1,12.28,3,22.45,22.45,0,0,1,8.83,8.35c.15.23.27.47.4.71L106.89,19c-.81-1-1.65-2-2.54-2.94A46.85,46.85,0,0,0,89.77,5.62Z"/><path class="cls-7" d="M33.41,4.4A54,54,0,0,0,15.05,16,48.79,48.79,0,0,0,4.12,32.08,44.8,44.8,0,0,0,.46,49.15c0,4.78,1.43,8.63,4.25,11.45a14.5,14.5,0,0,0,10.66,4.26c4.84,0,8.59-1.59,11.16-4.72a40.83,40.83,0,0,0,6.33-12.26c2.16-6.16,3.17-8.29,3.65-9,5-7.69,11.58-11.72,20-12.29l30.59-22C79.24,1.53,69.91,0,59.31,0,49.48,0,40.76,1.48,33.41,4.4Z"/><path class="cls-8" d="M68.35,122.06l27-19.75a7.44,7.44,0,0,0,1.47-10.82,8.43,8.43,0,0,0-11.41-1.38L58.41,109.85a7.45,7.45,0,0,0-1.47,10.82A8.44,8.44,0,0,0,68.35,122.06Z"/><path class="cls-5" d="M91.74,30.4a3,3,0,0,0,4.1.5l21-15.2a2.67,2.67,0,0,0,.53-3.88,3,3,0,0,0-4.1-.5l-21,15.2A2.67,2.67,0,0,0,91.74,30.4Z"/><path class="cls-9" d="M59.35,98.81l-54,39.57s-.72,1.33-1,1.77S3.3,142.4,3.3,142.4l57.36-42a1.1,1.1,0,0,1-1.5-.19A1,1,0,0,1,59.35,98.81Z"/><path class="cls-4" d="M123.64,51.74,59.35,98.81a1,1,0,0,0-.19,1.42,1.1,1.1,0,0,0,1.5.19L125,53.35a1,1,0,0,0,.19-1.42A1.11,1.11,0,0,0,123.64,51.74Z"/><path class="cls-2" d="M24.43,32.8a5.34,5.34,0,0,0,7.25.88L60.1,12.84A4.74,4.74,0,0,0,61,6a5.35,5.35,0,0,0-7.25-.87L25.36,25.93A4.72,4.72,0,0,0,24.43,32.8Z"/><path class="cls-8" d="M13.17,36,12,36.84A4.26,4.26,0,0,0,11.2,43a4.83,4.83,0,0,0,6.52.79L18.84,43a4.25,4.25,0,0,0,.84-6.18A4.81,4.81,0,0,0,13.17,36Z"/><path class="cls-1" d="M9,160.46l3.61-2.65a2.56,2.56,0,0,0,.5-3.72,2.89,2.89,0,0,0-3.92-.47L5.6,156.26A2.57,2.57,0,0,0,5.09,160,2.91,2.91,0,0,0,9,160.46Z"/></g></g></svg>