<svg xmlns="http://www.w3.org/2000/svg" viewBox="0 0 128.71 186.47"><defs><style>.cls-1{fill:#1bdb6f;}.cls-2{fill:#00a0f5;}.cls-3{fill:#f52000;}.cls-4{fill:#9d003e;}.cls-5{fill:#fbad1c;}.cls-6{fill:#e3dc45;}.cls-7{fill:#efc514;}.cls-8{fill:#8612f4;}.cls-9{fill:#2fc9c5;}</style></defs><g id="图层_2" data-name="图层 2"><g id="央铋_1" data-name="央铋 1"><path class="cls-1" d="M102.21,163.32a52.54,52.54,0,0,0,12.53-17.67A51.7,51.7,0,0,0,119,125.12a43.49,43.49,0,0,0-3.17-16.62c-.21-.51-.44-1-.68-1.51l-30.5,21.82a27,27,0,0,1-14,22.13,27,27,0,0,1-12.73,3.26,29.72,29.72,0,0,1-7.5-.89L25.64,171a67.45,67.45,0,0,0,7.08,3.71,60.22,60.22,0,0,0,25,5,69.14,69.14,0,0,0,24.94-4.35A59.75,59.75,0,0,0,102.21,163.32Z"/><path class="cls-2" d="M60.18,7.2a70.2,70.2,0,0,0-23.26,3.66A54,54,0,0,0,19.39,20.6,47,47,0,0,0,8.62,33.43,27.47,27.47,0,0,0,4.86,46.59a14.63,14.63,0,0,0,4.28,11,13.34,13.34,0,0,0,9.46,4.14,17.73,17.73,0,0,0,7.47-1.51A9.57,9.57,0,0,0,31,55.61q1.92-4.38,4.22-9.34a36.63,36.63,0,0,1,4.69-7.78,16.88,16.88,0,0,1,6.44-4.62A27.58,27.58,0,0,1,57,32.09a21,21,0,0,1,12,3.22l25.5-18a49.65,49.65,0,0,0-13.77-7A65.4,65.4,0,0,0,60.18,7.2Z"/><path class="cls-3" d="M28,124.35A10.46,10.46,0,0,0,23.44,119a12.89,12.89,0,0,0-7-2.12,16.45,16.45,0,0,0-11.7,4.46A15.55,15.55,0,0,0,0,133.14c0,3.66,1.21,8.1,3.71,13.56.46,1,1,2,1.53,3l25.59-18.31Q29.38,128.12,28,124.35Z"/><path class="cls-3" d="M93.21,84.49a64.79,64.79,0,0,0,12.61-14.61c3.42-5.62,5.16-12.43,5.16-20.24a40.06,40.06,0,0,0-3.54-16.72A39.11,39.11,0,0,0,97,19.23c-.79-.67-1.62-1.3-2.46-1.92L69,35.33a17.76,17.76,0,0,1,3,2.52,19.17,19.17,0,0,1,5.53,13.83c0,7.15-2.26,12.45-6.91,16.23a26,26,0,0,1-16.86,5.73H49.1C43.39,73.64,39,74.89,36,77.35a12.39,12.39,0,0,0-4.67,10c0,4.16,1.32,7.47,3.92,9.86s6.17,3.54,10.72,3.54c1,0,3-.15,6.26-.46s5.41-.44,6.85-.44a29.62,29.62,0,0,1,12.44,2.44L95,85.53C94.38,85.18,93.8,84.83,93.21,84.49Z"/><path class="cls-4" d="M50.42,153.31a19.89,19.89,0,0,1-10.19-6.18c-3.26-3.7-6.41-9-9.4-15.71L5.24,149.73a59.42,59.42,0,0,0,9.28,12.51A53.16,53.16,0,0,0,25.64,171Z"/><path class="cls-4" d="M115.15,107a43.82,43.82,0,0,0-8.77-12.53,61.72,61.72,0,0,0-11.44-8.94l-23.46,16.8A21.13,21.13,0,0,1,78,106.89c4.49,4.67,6.77,11.26,6.77,19.58,0,.8,0,1.57-.09,2.34Z"/><path class="cls-5" d="M33.48,95.74a14.23,14.23,0,0,0,19.26,2.35l1.3-.94a12.57,12.57,0,0,0,2.48-18.28,14.27,14.27,0,0,0-19.29-2.35L36,77.46A12.59,12.59,0,0,0,33.48,95.74Z"/><path class="cls-6" d="M5.41,51.14l38.86-28.5a1,1,0,0,0-.2,1.42,1.12,1.12,0,0,0,1.5.19L6.12,53.18s-.3-.73-.42-1.08S5.41,51.14,5.41,51.14Z"/><path class="cls-1" d="M75,.21,44.27,22.64a1,1,0,0,0-.2,1.42,1.12,1.12,0,0,0,1.5.19L76.26,1.82A1,1,0,0,0,76.45.39,1.11,1.11,0,0,0,75,.21Z"/><path class="cls-7" d="M19.13,47.91,18,48.74a4.26,4.26,0,0,0-.84,6.18,4.83,4.83,0,0,0,6.52.79l1.13-.83a4.25,4.25,0,0,0,.83-6.18A4.81,4.81,0,0,0,19.13,47.91Z"/><path class="cls-6" d="M97.22,158.36l28.18-20.65a7.8,7.8,0,0,0,1.54-11.31A8.83,8.83,0,0,0,115,125L86.83,145.6a7.79,7.79,0,0,0-1.54,11.31A8.83,8.83,0,0,0,97.22,158.36Z"/><path class="cls-8" d="M93.5,67.08a3.87,3.87,0,0,0,5.21.63l20.2-15a3.4,3.4,0,0,0,.66-4.93,3.84,3.84,0,0,0-5.2-.63l-20.2,15A3.4,3.4,0,0,0,93.5,67.08Z"/><path class="cls-3" d="M34.78,24.67,58.3,7.22c-1.07,0-2.43.1-3.49.16-.77,0-3.56.3-3.56.3l-18.88,14a2,2,0,0,1,2.76.33A1.8,1.8,0,0,1,34.78,24.67Z"/><path class="cls-7" d="M24.47,29.86a2,2,0,0,0,2.77.33l7.54-5.52h0a1.8,1.8,0,0,0,.35-2.62,2,2,0,0,0-2.76-.33l-7.54,5.52A1.81,1.81,0,0,0,24.47,29.86Z"/><path class="cls-8" d="M27.47,185.39a3,3,0,0,0,4.1.5l16.07-11.78a2.68,2.68,0,0,0,.52-3.89,3,3,0,0,0-4.1-.49L28,181.51A2.67,2.67,0,0,0,27.47,185.39Z"/><path class="cls-7" d="M15.21,140.85a1.63,1.63,0,0,0,2.21.26L35.5,128.05a1.44,1.44,0,0,0,.28-2.09,1.62,1.62,0,0,0-2.21-.27L15.49,138.75A1.44,1.44,0,0,0,15.21,140.85Z"/><path class="cls-9" d="M67.57,48.88a1.65,1.65,0,0,0,2.23.27L88.7,35.29A1.45,1.45,0,0,0,89,33.18a1.64,1.64,0,0,0-2.22-.27L67.86,46.77A1.46,1.46,0,0,0,67.57,48.88Z"/></g></g></svg>