<svg xmlns="http://www.w3.org/2000/svg" xmlns:xlink="http://www.w3.org/1999/xlink" viewBox="0 0 100.19 192.2"><defs><style>.cls-1{fill:#1bdb6f;}.cls-2{fill:#8612f4;}.cls-3{fill:#9d003e;}.cls-4{fill:#e4dc1b;}.cls-5{fill:#efc514;}.cls-6{fill:#f52000;}.cls-7{fill:url(#铃琨眄_沭噤桢眚_28);}.cls-8{fill:#17d2f5;}.cls-9{fill:#dc2eef;}.cls-10{fill:#e3dc45;}</style><linearGradient id="铃琨眄_沭噤桢眚_28" x1="71.98" y1="33.08" x2="0.02" y2="93.17" gradientUnits="userSpaceOnUse"><stop offset="0" stop-color="#00a0f5"/><stop offset="0.25" stop-color="#0399f5"/><stop offset="0.61" stop-color="#0c87f5"/><stop offset="1" stop-color="#196af4"/></linearGradient></defs><g id="图层_2" data-name="图层 2"><g id="央铋_1" data-name="央铋 1"><path class="cls-1" d="M90.92,164.45V152.91L58,177.12a16.65,16.65,0,0,0,3.51,6.49,15.83,15.83,0,0,0,12.28,5.17C85.16,188.78,90.92,180.59,90.92,164.45Z"/><path class="cls-2" d="M90.92,104.22l-34,24.86v39.77a28.66,28.66,0,0,0,1.18,8.58l32.81-24Z"/><polygon class="cls-3" points="90.92 104.31 90.92 33.86 56.93 58.75 56.93 129.19 90.92 104.31"/><path class="cls-4" d="M86.77,150.74l-1.13.83a4.26,4.26,0,0,0-.84,6.18,4.83,4.83,0,0,0,6.52.79l1.13-.83a4.25,4.25,0,0,0,.83-6.18A4.81,4.81,0,0,0,86.77,150.74Z"/><path class="cls-5" d="M69.22,79.72l-1.13.82a4.27,4.27,0,0,0-.84,6.18,4.82,4.82,0,0,0,6.52.79l1.13-.82a4.25,4.25,0,0,0,.83-6.18A4.81,4.81,0,0,0,69.22,79.72Z"/><path class="cls-6" d="M90.92,104.34,68.05,121.1a7.79,7.79,0,0,0-1.54,11.31,8.83,8.83,0,0,0,11.93,1.45l12.48-9.14Z"/><path class="cls-7" d="M27.57,88.83,84.26,47.29a15.69,15.69,0,0,0,3.1-22.76,17.75,17.75,0,0,0-24-2.9L6.66,63.16a15.68,15.68,0,0,0-3.1,22.76A17.75,17.75,0,0,0,27.57,88.83Z"/><path class="cls-8" d="M79.43,75.48a4.37,4.37,0,0,0,5.9.72l13.22-9.69a3.86,3.86,0,0,0,.76-5.6,4.36,4.36,0,0,0-5.9-.71L80.19,69.89A3.85,3.85,0,0,0,79.43,75.48Z"/><path class="cls-9" d="M49.38,175a4.36,4.36,0,0,0,5.9.71l13.23-9.69a3.85,3.85,0,0,0,.76-5.59,4.36,4.36,0,0,0-5.9-.71l-13.23,9.69A3.85,3.85,0,0,0,49.38,175Z"/><path class="cls-1" d="M11.81,81.53a3.86,3.86,0,0,0,5.2.63l11.66-8.55a3.4,3.4,0,0,0,.67-4.93,3.84,3.84,0,0,0-5.2-.63L12.48,76.6A3.38,3.38,0,0,0,11.81,81.53Z"/><path class="cls-5" d="M54.86,116.68a1.63,1.63,0,0,0,2.22.27L76,103.09a1.46,1.46,0,0,0,.29-2.11,1.66,1.66,0,0,0-2.23-.27l-18.9,13.86A1.44,1.44,0,0,0,54.86,116.68Z"/><path class="cls-8" d="M77.3,13.28a1.63,1.63,0,0,0,2.22.27L94.43,2.69A1.45,1.45,0,0,0,94.71.58,1.65,1.65,0,0,0,92.49.31L77.58,11.17A1.45,1.45,0,0,0,77.3,13.28Z"/><path class="cls-8" d="M43.25,191.61a1.63,1.63,0,0,0,2.22.27l11.2-8.2a1.45,1.45,0,0,0,.29-2.11,1.64,1.64,0,0,0-2.22-.27l-11.2,8.2A1.45,1.45,0,0,0,43.25,191.61Z"/><path class="cls-9" d="M51.13,79.8A1.48,1.48,0,0,1,50.84,82L65.37,71.3a1.46,1.46,0,0,0,.29-2.14,1.66,1.66,0,0,0-2.26-.27L48.87,79.53A1.66,1.66,0,0,1,51.13,79.8Z"/><path class="cls-6" d="M42.41,86.19a1.66,1.66,0,0,0,2.26.27L50.84,82h0a1.48,1.48,0,0,0,.29-2.15,1.66,1.66,0,0,0-2.26-.27L42.7,84.05A1.48,1.48,0,0,0,42.41,86.19Z"/><path class="cls-10" d="M11.41,91.3,65,52.14a1,1,0,0,0-.2,1.43,1.11,1.11,0,0,0,1.5.18L14.06,92a11,11,0,0,1-1.27-.26C12.1,91.53,11.41,91.3,11.41,91.3Z"/><path class="cls-1" d="M85.24,37.35,65,52.14a1,1,0,0,0-.2,1.43,1.11,1.11,0,0,0,1.5.18L86.55,39a1,1,0,0,0,.19-1.43A1.11,1.11,0,0,0,85.24,37.35Z"/><path class="cls-5" d="M55.5,42.89A10.44,10.44,0,0,0,69.63,44.6l.94-.68a9.24,9.24,0,0,0,1.81-13.41A10.46,10.46,0,0,0,58.24,28.8l-.93.68A9.23,9.23,0,0,0,55.5,42.89Z"/></g></g></svg>